HIERARCHY
ROOT Hips
{
	OFFSET 0.000000 0.000000 0.000000
	CHANNELS 6 Xposition Yposition Zposition Zrotation Yrotation Xrotation 
	JOINT LHipJoint
	{
		OFFSET 0.000000 0.000000 0.000000
		CHANNELS 3 Zrotation Yrotation Xrotation
		JOINT LeftUpLeg
		{
			OFFSET 1.363060 -1.794630 0.839290
			CHANNELS 3 Zrotation Yrotation Xrotation
			JOINT LeftLeg
			{
				OFFSET 2.448110 -6.726130 0.000000
				CHANNELS 3 Zrotation Yrotation Xrotation
				JOINT LeftFoot
				{
					OFFSET 2.562200 -7.039590 0.000000
					CHANNELS 3 Zrotation Yrotation Xrotation
					JOINT LeftToeBase
					{
						OFFSET 0.157640 -0.433110 2.322550
						CHANNELS 3 Zrotation Yrotation Xrotation
						End Site
						{
							OFFSET 0.000000 0.000000 0.000000
						}
					}
				}
			}
		}
	}
	JOINT RHipJoint
	{
		OFFSET 0.000000 0.000000 0.000000
		CHANNELS 3 Zrotation Yrotation Xrotation
		JOINT RightUpLeg
		{
			OFFSET -1.305520 -1.794630 0.839290
			CHANNELS 3 Zrotation Yrotation Xrotation
			JOINT RightLeg
			{
				OFFSET -2.542530 -6.985550 0.000000
				CHANNELS 3 Zrotation Yrotation Xrotation
				JOINT RightFoot
				{
					OFFSET -2.568260 -7.056230 0.000000
					CHANNELS 3 Zrotation Yrotation Xrotation
					JOINT RightToeBase
					{
						OFFSET -0.164730 -0.452590 2.363150
						CHANNELS 3 Zrotation Yrotation Xrotation
						End Site
						{
							OFFSET 0.000000 0.000000 0.000000
						}
					}
				}
			}
		}
	}
	JOINT LowerBack
	{
		OFFSET 0.000000 0.000000 0.000000
		CHANNELS 3 Zrotation Yrotation Xrotation
		JOINT Spine
		{
			OFFSET 0.028270 2.035590 -0.193380
			CHANNELS 3 Zrotation Yrotation Xrotation
			JOINT Spine1
			{
				OFFSET 0.056720 2.048850 -0.042750
				CHANNELS 3 Zrotation Yrotation Xrotation
				JOINT Neck
				{
					OFFSET 0.000000 0.000000 0.000000
					CHANNELS 3 Zrotation Yrotation Xrotation
					JOINT Neck1
					{
						OFFSET -0.054170 1.746240 0.172020
						CHANNELS 3 Zrotation Yrotation Xrotation
						JOINT Head
						{
							OFFSET 0.104070 1.761360 -0.123970
							CHANNELS 3 Zrotation Yrotation Xrotation
							End Site
							{
								OFFSET 0.000000 0.000000 0.000000
							}
						}
					}
				}
				JOINT LeftShoulder
				{
					OFFSET 0.000000 0.000000 0.000000
					CHANNELS 3 Zrotation Yrotation Xrotation
					JOINT LeftArm
					{
						OFFSET 3.362410 1.200890 -0.311210
						CHANNELS 3 Zrotation Yrotation Xrotation
						JOINT LeftForeArm
						{
							OFFSET 4.983000 -0.000000 -0.000000
							CHANNELS 3 Zrotation Yrotation Xrotation
							JOINT LeftHand
							{
								OFFSET 3.483560 -0.000000 -0.000000
								CHANNELS 3 Zrotation Yrotation Xrotation
								JOINT LeftFingerBase
								{
									OFFSET 0.000000 0.000000 0.000000
									CHANNELS 3 Zrotation Yrotation Xrotation
									JOINT LeftHandIndex1
									{
										OFFSET 0.715260 -0.000000 -0.000000
										CHANNELS 3 Zrotation Yrotation Xrotation
										End Site
										{
											OFFSET 0.000000 0.000000 0.000000
										}
									}
								}
								JOINT LThumb
								{
									OFFSET 0.000000 0.000000 0.000000
									CHANNELS 3 Zrotation Yrotation Xrotation
									End Site
									{
										OFFSET 0.000000 0.000000 0.000000
									}
								}
							}
						}
					}
				}
				JOINT RightShoulder
				{
					OFFSET 0.000000 0.000000 0.000000
					CHANNELS 3 Zrotation Yrotation Xrotation
					JOINT RightArm
					{
						OFFSET -3.136600 1.374050 -0.404650
						CHANNELS 3 Zrotation Yrotation Xrotation
						JOINT RightForeArm
						{
							OFFSET -5.241900 -0.000000 -0.000000
							CHANNELS 3 Zrotation Yrotation Xrotation
							JOINT RightHand
							{
								OFFSET -3.444170 -0.000000 -0.000000
								CHANNELS 3 Zrotation Yrotation Xrotation
								JOINT RightFingerBase
								{
									OFFSET 0.000000 0.000000 0.000000
									CHANNELS 3 Zrotation Yrotation Xrotation
									JOINT RightHandIndex1
									{
										OFFSET -0.622530 -0.000000 -0.000000
										CHANNELS 3 Zrotation Yrotation Xrotation
										End Site
										{
											OFFSET 0.000000 0.000000 0.000000
										}
									}
								}
								JOINT RThumb
								{
									OFFSET 0.000000 0.000000 0.000000
									CHANNELS 3 Zrotation Yrotation Xrotation
									End Site
									{
										OFFSET 0.000000 0.000000 0.000000
									}
								}
							}
						}
					}
				}
			}
		}
	}
}
MOTION
Frames: 5
Frame Time: 0.008333
5.726125 14.672298 4.932338 -14.868642 12.217200 -23.672723 5.346942 -23.322921 -12.095386 -10.363382 29.244531 -33.555251 0.550662 32.182014 34.349147 12.452002 7.311181 62.990988 0.143300 -2.440000 -6.723200 -12.366899 0.674897 -6.750454 16.596240 -11.745520 -31.291556 -9.703668 -32.582681 37.566562 -3.050424 -10.070777 58.328382 -0.070800 1.716100 -4.721600 -7.775708 12.178695 -17.154770 33.363025 -17.247214 28.892772 -9.702520 7.107547 9.256206 -5.123128 2.390650 -11.936749 3.185558 4.082741 11.782318 -1.595700 2.470000 12.698100 -20.340433 1.836623 -3.945892 -23.719440 14.417048 90.025938 40.110325 -41.832673 -52.349216 -10.653664 -12.149717 -38.112148 37.169574 -16.410742 -14.563800 -7.125000 0.000000 0.000000 17.734900 12.428900 -14.216800 14.859840 5.156715 -1.071772 5.680256 -18.450587 83.065218 -53.731968 44.977518 -59.505030 5.982184 15.597273 -11.458117 -45.765749 -9.653894 32.087200 7.125000 0.000000 0.000000 -40.226700 -64.692700 20.712400 
5.729300 14.665042 4.923419 -15.155152 12.464460 -23.956577 5.447539 -23.424496 -12.174061 -10.321704 28.900467 -33.265292 0.726325 32.121201 34.297132 12.378154 7.335878 62.996566 0.138500 -2.398500 -6.608200 -12.110185 0.517264 -6.547676 16.611912 -12.078422 -31.314526 -9.680257 -32.527548 37.549825 -3.105152 -10.036064 58.338288 -0.068000 1.682600 -4.629400 -8.344334 12.724936 -16.682649 34.140007 -19.697380 28.692776 -9.606396 7.667596 8.921709 -5.098211 2.536384 -11.954750 3.137432 4.282510 11.735598 -1.560000 2.567100 12.682300 -20.210900 2.537789 -4.449528 -24.065947 14.558889 89.362517 40.003598 -41.676919 -51.628154 -10.971533 -11.711818 -37.712210 37.562872 -17.230467 -16.061600 -7.125000 0.000000 0.000000 17.629600 10.702300 -14.785400 14.637981 5.231015 -0.779013 5.884782 -18.902458 82.890062 -54.002647 45.410990 -59.179849 6.081190 15.161165 -10.882320 -46.416149 -9.435755 32.045300 7.125000 0.000000 0.000000 -40.634200 -64.267800 20.561900 
5.732474 14.657937 4.914500 -15.287574 12.582035 -24.174947 5.469060 -23.501343 -12.184030 -10.250844 28.683554 -33.076357 0.796967 32.108687 34.259752 12.338448 7.360989 63.000779 0.139700 -2.409000 -6.637400 -12.008641 0.433065 -6.432608 16.629106 -12.270265 -31.285926 -9.674882 -32.470017 37.532056 -3.137752 -10.035835 58.361875 -0.065100 1.646000 -4.528200 -8.457386 13.152448 -16.362209 34.292427 -20.997523 28.677798 -9.645615 7.575602 8.871912 -4.466770 2.515691 -12.161949 2.920518 4.106012 11.671411 -2.050700 2.588500 12.902000 -19.968738 2.727462 -4.756777 -24.213052 14.529213 88.712144 39.665111 -41.332484 -50.803813 -11.250881 -11.357879 -37.068876 37.844449 -17.703659 -16.974200 -7.125000 0.000000 0.000000 17.594000 9.665200 -15.142000 14.709242 5.302274 -0.641582 6.295206 -19.083080 82.957757 -53.871407 45.407723 -58.618913 6.311272 14.800967 -10.069555 -47.206387 -9.545503 32.646900 7.125000 0.000000 0.000000 -41.993000 -64.366400 21.461800 
5.736556 14.659902 4.912232 -15.372713 12.698953 -24.140769 5.524457 -23.549257 -12.235831 -10.236268 28.523296 -33.047201 0.787225 32.133797 34.242122 12.345229 7.377760 62.993184 0.137600 -2.390900 -6.587300 -11.962156 0.381322 -6.399122 16.657619 -12.440841 -31.328459 -9.650207 -32.427241 37.490962 -3.140043 -10.030158 58.385104 -0.064900 1.643900 -4.522600 -8.465988 13.165435 -16.188888 34.130374 -22.168427 28.760301 -9.413176 7.681018 8.843872 -4.580072 2.730884 -11.872406 3.008679 4.380098 11.677795 -1.844500 2.692800 12.761400 -19.751217 2.835224 -5.022054 -24.469795 14.622752 88.261508 39.469412 -40.956626 -49.815210 -11.641028 -10.960879 -36.030904 38.704287 -18.095305 -18.100300 -7.125000 0.000000 0.000000 17.972800 8.585900 -15.913500 14.705829 5.521243 -0.437097 6.752786 -19.126602 83.157862 -53.336859 45.139570 -57.765987 6.614837 14.402207 -9.218384 -47.971436 -9.472002 33.049300 7.125000 0.000000 0.000000 -43.155300 -64.208500 22.007900 
5.740335 14.657333 4.907546 -15.414793 12.744101 -24.198848 5.544897 -23.568161 -12.267304 -10.197691 28.373295 -32.964488 0.820795 32.140502 34.228101 12.328047 7.392028 62.991694 0.136500 -2.381000 -6.559700 -11.934958 0.353280 -6.375133 16.687069 -12.586996 -31.324585 -9.639594 -32.375144 37.467191 -3.155175 -10.020502 58.403973 -0.063500 1.625800 -4.472500 -8.397070 13.279730 -15.935296 33.979233 -23.004916 28.799594 -9.318797 7.660974 8.810902 -4.450508 2.869999 -11.741860 3.017269 4.505434 11.668173 -1.867900 2.770700 12.732200 -19.540600 2.885063 -5.228733 -24.736362 14.637526 87.832852 39.219703 -40.654193 -48.985721 -12.006237 -10.548734 -35.237975 39.470591 -18.668579 -19.489100 -7.125000 0.000000 0.000000 18.216300 7.177800 -16.686300 14.708030 5.668951 -0.306715 7.246513 -19.165630 83.272851 -52.854970 44.872816 -56.984295 6.903618 14.039046 -8.396622 -48.679095 -9.483563 33.530900 7.125000 0.000000 0.000000 -44.364900 -64.165600 22.700400 
